<svg height="800" width="800" xmlns="http://www.w3.org/2000/svg" viewBox="0 0 473.931 473.931" xml:space="preserve"><circle style="fill:#cbdb2b" cx="236.966" cy="236.966" r="236.966"/><path style="fill:#c7d02d" d="M404.518 69.38c92.545 92.549 92.552 242.593 0 335.142-92.541 92.541-242.593 92.541-335.142 0L404.518 69.38z"/><path style="fill:#c0c130" d="m472.899 258.638-51.079-51.075-131.545-43.842-107.576 14.499-79.512 76.706-7.873 59.247 159.058 159.055c115.553-8.408 208.091-99.613 218.527-214.59z"/><path style="fill:#fff" d="M201.576 156.383c-1.003.153-1.882.393-2.885.576l-16.565-33.844-49.111 5.613 20.015 41.182C49.477 212.925 95.359 314.356 95.359 314.356l158.015-45.75-43.416-88.661c77.922-22.525 142.988 23.532 142.988 23.532l-53.634 14.574-15.442-28.86c-14.529-2.705-31.072-3.528-48.699-.576l36.523 74.652 157.775-45.713c-.001-.004-57.216-90.398-227.893-61.171zm-63.464 105.435s-15.221-33.814 29.081-62.775l23.562 48.497-52.643 14.278z"/></svg>